# xmcd
#
# Track frame offsets:
#	150
#	23832
#	47072
#	63200
#	89477
#	110953
#	128760
#	146101
#	169845
#	189480
#	219030
#	238011
#
# Disc length: 3491 seconds
#
# Revision: 1
# Processed by: cddbd v1.5.2PL0 Copyright (c) Steve Scherf et al.
# Submitted via: audiograbber 1.81.02
#
DISCID=aa0da10c
DTITLE=Various Artist - How Great Is Our God - Die schönsten internationalen L
DTITLE=obpreissongs 1
DYEAR=2009
DGENRE=
TTITLE0=Come, Now Is The Time To Worship
TTITLE1=God Of Wonders
TTITLE2=Lord, I Lift Your Name On High
TTITLE3=Shout To The Lord
TTITLE4=Open The Eyes Of My Heart
TTITLE5=How Great Is Our God
TTITLE6=Blessed Be Your Name
TTITLE7=Here I Am To Worship
TTITLE8=Everlasting God
TTITLE9=All, Who Are Thirsty
TTITLE10=Breathe
TTITLE11=The Heart Of Worship
EXTD=www.gerth.de, Art.-Nr.: 946387
EXTT0=
EXTT1=
EXTT2=
EXTT3=
EXTT4=
EXTT5=
EXTT6=
EXTT7=
EXTT8=
EXTT9=
EXTT10=
EXTT11=
PLAYORDER=
